<svg width="872" height="160" viewBox="0 0 872 160" fill="none" xmlns="http://www.w3.org/2000/svg">
<path d="M239.929 61.8267C239.588 58.3892 238.125 55.7187 235.54 53.8153C232.955 51.9119 229.446 50.9602 225.014 50.9602C222.003 50.9602 219.46 51.3864 217.386 52.2386C215.313 53.0625 213.722 54.2131 212.614 55.6903C211.534 57.1676 210.994 58.8438 210.994 60.7188C210.938 62.2812 211.264 63.6449 211.974 64.8097C212.713 65.9744 213.722 66.983 215 67.8352C216.278 68.6591 217.756 69.3835 219.432 70.0085C221.108 70.6051 222.898 71.1165 224.801 71.5426L232.642 73.4176C236.449 74.2699 239.943 75.4062 243.125 76.8267C246.307 78.2472 249.063 79.9943 251.392 82.0682C253.722 84.142 255.526 86.5852 256.804 89.3977C258.111 92.2102 258.778 95.4347 258.807 99.071C258.778 104.412 257.415 109.043 254.716 112.963C252.045 116.855 248.182 119.881 243.125 122.04C238.097 124.17 232.031 125.236 224.929 125.236C217.884 125.236 211.747 124.156 206.52 121.997C201.321 119.838 197.259 116.642 194.332 112.409C191.435 108.148 189.915 102.878 189.773 96.5994H207.628C207.827 99.5256 208.665 101.969 210.142 103.929C211.648 105.861 213.651 107.324 216.151 108.318C218.679 109.284 221.534 109.767 224.716 109.767C227.841 109.767 230.554 109.312 232.855 108.403C235.185 107.494 236.989 106.23 238.267 104.611C239.545 102.991 240.185 101.131 240.185 99.0284C240.185 97.0682 239.602 95.4205 238.438 94.0852C237.301 92.75 235.625 91.6136 233.409 90.6761C231.222 89.7386 228.537 88.8864 225.355 88.1193L215.852 85.733C208.494 83.9432 202.685 81.1449 198.423 77.3381C194.162 73.5312 192.045 68.4034 192.074 61.9545C192.045 56.6705 193.452 52.054 196.293 48.1051C199.162 44.1562 203.097 41.0739 208.097 38.858C213.097 36.642 218.778 35.5341 225.142 35.5341C231.619 35.5341 237.273 36.642 242.102 38.858C246.96 41.0739 250.739 44.1562 253.438 48.1051C256.136 52.054 257.528 56.6278 257.614 61.8267H239.929ZM289.542 125.236C285.366 125.236 281.644 124.511 278.377 123.062C275.11 121.585 272.525 119.412 270.621 116.543C268.746 113.645 267.809 110.037 267.809 105.719C267.809 102.082 268.477 99.0284 269.812 96.5568C271.147 94.0852 272.965 92.0966 275.266 90.5909C277.567 89.0852 280.181 87.9489 283.107 87.1818C286.062 86.4148 289.158 85.875 292.397 85.5625C296.204 85.1648 299.272 84.7955 301.602 84.4545C303.931 84.0852 305.621 83.5455 306.673 82.8352C307.724 82.125 308.249 81.0739 308.249 79.6818V79.4261C308.249 76.7273 307.397 74.6392 305.692 73.1619C304.016 71.6847 301.63 70.946 298.533 70.946C295.266 70.946 292.667 71.6705 290.735 73.1193C288.803 74.5398 287.525 76.3295 286.9 78.4886L270.11 77.125C270.962 73.1477 272.638 69.7102 275.138 66.8125C277.638 63.8864 280.863 61.642 284.812 60.0795C288.789 58.4886 293.391 57.6932 298.619 57.6932C302.255 57.6932 305.735 58.1193 309.059 58.9716C312.411 59.8239 315.38 61.1449 317.965 62.9347C320.579 64.7244 322.638 67.0256 324.144 69.8381C325.65 72.6222 326.403 75.9602 326.403 79.8523V124H309.187V114.923H308.675C307.624 116.969 306.218 118.773 304.457 120.335C302.695 121.869 300.579 123.077 298.107 123.957C295.636 124.81 292.781 125.236 289.542 125.236ZM294.741 112.707C297.411 112.707 299.769 112.182 301.815 111.131C303.86 110.051 305.465 108.602 306.63 106.784C307.795 104.966 308.377 102.906 308.377 100.605V93.6591C307.809 94.0284 307.028 94.3693 306.033 94.6818C305.067 94.9659 303.974 95.2358 302.752 95.4915C301.531 95.7187 300.309 95.9318 299.087 96.1307C297.866 96.3011 296.758 96.4574 295.763 96.5994C293.633 96.9119 291.772 97.4091 290.181 98.0909C288.59 98.7727 287.354 99.696 286.474 100.861C285.593 101.997 285.153 103.418 285.153 105.122C285.153 107.594 286.048 109.483 287.837 110.79C289.656 112.068 291.957 112.707 294.741 112.707ZM375.685 58.5455V72.1818H335.288V58.5455H375.685ZM344.535 124V53.8153C344.535 49.071 345.458 45.1364 347.305 42.0114C349.18 38.8864 351.737 36.5426 354.975 34.9801C358.214 33.4176 361.893 32.6364 366.012 32.6364C368.796 32.6364 371.339 32.8494 373.64 33.2756C375.969 33.7017 377.702 34.0852 378.839 34.4261L375.6 48.0625C374.89 47.8352 374.009 47.6222 372.958 47.4233C371.935 47.2244 370.884 47.125 369.805 47.125C367.134 47.125 365.273 47.75 364.222 49C363.171 50.2216 362.646 51.9403 362.646 54.1562V124H344.535ZM414.261 125.278C407.528 125.278 401.733 123.915 396.875 121.188C392.045 118.432 388.324 114.54 385.71 109.511C383.097 104.455 381.79 98.4744 381.79 91.571C381.79 84.8381 383.097 78.929 385.71 73.8438C388.324 68.7585 392.003 64.7955 396.747 61.9545C401.52 59.1136 407.116 57.6932 413.537 57.6932C417.855 57.6932 421.875 58.3892 425.597 59.7812C429.347 61.1449 432.614 63.2045 435.398 65.9602C438.21 68.7159 440.398 72.1818 441.96 76.358C443.523 80.5057 444.304 85.3636 444.304 90.9318V95.9176H389.034V84.6676H427.216C427.216 82.054 426.648 79.7386 425.511 77.7216C424.375 75.7045 422.798 74.1278 420.781 72.9915C418.793 71.8267 416.477 71.2443 413.835 71.2443C411.08 71.2443 408.636 71.8835 406.506 73.1619C404.403 74.4119 402.756 76.1023 401.562 78.233C400.369 80.3352 399.759 82.679 399.73 85.2642V95.9602C399.73 99.1989 400.327 101.997 401.52 104.355C402.741 106.713 404.46 108.531 406.676 109.81C408.892 111.088 411.52 111.727 414.56 111.727C416.577 111.727 418.423 111.443 420.099 110.875C421.776 110.307 423.21 109.455 424.403 108.318C425.597 107.182 426.506 105.79 427.131 104.142L443.92 105.25C443.068 109.284 441.321 112.807 438.679 115.818C436.065 118.801 432.685 121.131 428.537 122.807C424.418 124.455 419.659 125.278 414.261 125.278Z" fill="#8BCC58"/>
<path d="M480.387 80.7472V72.1818C485.302 72.1818 488.711 71.2017 490.614 69.2415C492.518 67.2812 493.469 64.1136 493.469 59.7386V50.321C493.469 45.0653 494.194 40.8608 495.643 37.7074C497.12 34.5256 499.165 32.125 501.779 30.5057C504.421 28.8864 507.546 27.8068 511.154 27.267C514.762 26.7273 518.711 26.4574 523.001 26.4574V40.0085C519.648 40.0085 517.092 40.4489 515.33 41.3295C513.597 42.1818 512.418 43.517 511.793 45.3352C511.168 47.125 510.856 49.3977 510.856 52.1534V64.5966C510.856 66.7557 510.458 68.8153 509.663 70.7756C508.867 72.7074 507.39 74.4261 505.231 75.9318C503.072 77.4091 499.989 78.5881 495.984 79.4688C491.978 80.321 486.779 80.7472 480.387 80.7472ZM523.001 134.312C518.711 134.312 514.762 134.043 511.154 133.503C507.546 132.963 504.421 131.884 501.779 130.264C499.165 128.645 497.12 126.259 495.643 123.105C494.194 119.923 493.469 115.705 493.469 110.449V100.989C493.469 96.6136 492.518 93.446 490.614 91.4858C488.711 89.5256 485.302 88.5455 480.387 88.5455V79.9801C486.779 79.9801 491.978 80.4205 495.984 81.3011C499.989 82.1534 503.072 83.3324 505.231 84.8381C507.39 86.3153 508.867 88.0341 509.663 89.9943C510.458 91.9261 510.856 93.9858 510.856 96.1733V108.616C510.856 111.344 511.168 113.616 511.793 115.435C512.418 117.224 513.597 118.56 515.33 119.44C517.092 120.293 519.648 120.719 523.001 120.719V134.312ZM480.387 88.5455V72.1818H495.685V88.5455H480.387ZM536.307 124L572.486 52.4091V51.8125H530.341V36.7273H591.577V52.0256L555.355 124H536.307ZM634.925 125.193C628.903 125.193 623.533 124.085 618.817 121.869C614.13 119.653 610.408 116.599 607.653 112.707C604.897 108.815 603.462 104.355 603.349 99.3267H621.246C621.445 102.707 622.866 105.449 625.508 107.551C628.15 109.653 631.289 110.705 634.925 110.705C637.823 110.705 640.38 110.065 642.596 108.787C644.84 107.48 646.587 105.676 647.837 103.375C649.116 101.045 649.755 98.375 649.755 95.3636C649.755 92.2955 649.102 89.5966 647.795 87.267C646.516 84.9375 644.741 83.1193 642.468 81.8125C640.195 80.5057 637.596 79.8381 634.67 79.8097C632.113 79.8097 629.627 80.3352 627.212 81.3864C624.826 82.4375 622.965 83.8722 621.63 85.6903L605.224 82.75L609.357 36.7273H662.71V51.8125H624.57L622.312 73.6733H622.823C624.357 71.5142 626.673 69.7244 629.769 68.304C632.866 66.8835 636.332 66.1733 640.167 66.1733C645.423 66.1733 650.11 67.4091 654.229 69.8807C658.349 72.3523 661.602 75.7472 663.988 80.0653C666.374 84.3551 667.553 89.2983 667.525 94.8949C667.553 100.776 666.19 106.003 663.434 110.577C660.707 115.122 656.886 118.702 651.971 121.315C647.085 123.901 641.403 125.193 634.925 125.193ZM683.846 124L720.025 52.4091V51.8125H677.88V36.7273H739.116V52.0256L702.894 124H683.846ZM782.166 35.5341C786.655 35.5341 790.973 36.2869 795.121 37.7926C799.297 39.2983 803.018 41.6989 806.286 44.9943C809.581 48.2898 812.18 52.6648 814.084 58.1193C816.016 63.5455 816.996 70.2074 817.024 78.1051C817.024 85.5199 816.186 92.1392 814.51 97.9631C812.862 103.759 810.49 108.688 807.393 112.75C804.297 116.812 800.561 119.909 796.186 122.04C791.811 124.142 786.925 125.193 781.527 125.193C775.703 125.193 770.561 124.071 766.101 121.827C761.641 119.554 758.047 116.472 755.32 112.58C752.621 108.659 750.987 104.256 750.419 99.3693H768.615C769.325 102.551 770.817 105.023 773.089 106.784C775.362 108.517 778.175 109.384 781.527 109.384C787.209 109.384 791.527 106.912 794.482 101.969C797.436 96.9972 798.928 90.1932 798.956 81.5568H798.359C797.053 84.1136 795.291 86.3153 793.075 88.1619C790.859 89.9801 788.317 91.3864 785.447 92.3807C782.607 93.375 779.581 93.8722 776.371 93.8722C771.229 93.8722 766.641 92.6648 762.607 90.25C758.572 87.8352 755.391 84.5114 753.061 80.2784C750.732 76.0455 749.567 71.2159 749.567 65.7898C749.538 59.9375 750.888 54.7244 753.615 50.1506C756.342 45.5767 760.149 41.9972 765.036 39.4119C769.95 36.7983 775.661 35.5057 782.166 35.5341ZM782.294 50.0227C779.425 50.0227 776.868 50.7045 774.624 52.0682C772.408 53.4318 770.646 55.2642 769.339 57.5653C768.061 59.8665 767.436 62.4375 767.464 65.2784C767.464 68.1477 768.089 70.733 769.339 73.0341C770.618 75.3068 772.351 77.125 774.538 78.4886C776.754 79.8239 779.283 80.4915 782.124 80.4915C784.254 80.4915 786.229 80.0937 788.047 79.2983C789.865 78.5028 791.442 77.4091 792.777 76.017C794.141 74.5966 795.206 72.9631 795.973 71.1165C796.74 69.2699 797.124 67.3097 797.124 65.2358C797.095 62.4801 796.442 59.9517 795.163 57.6506C793.885 55.3494 792.124 53.5028 789.879 52.1108C787.635 50.7187 785.107 50.0227 782.294 50.0227ZM868.118 79.9801V88.5455C863.232 88.5455 859.822 89.5256 857.891 91.4858C855.987 93.446 855.036 96.6136 855.036 100.989V110.449C855.036 115.705 854.297 119.923 852.82 123.105C851.371 126.259 849.325 128.645 846.683 130.264C844.07 131.884 840.959 132.963 837.351 133.503C833.771 134.043 829.822 134.312 825.504 134.312V120.719C828.857 120.719 831.399 120.293 833.132 119.44C834.893 118.56 836.087 117.224 836.712 115.435C837.337 113.616 837.649 111.344 837.649 108.616V96.1733C837.649 93.9858 838.047 91.9261 838.842 89.9943C839.638 88.0341 841.115 86.3153 843.274 84.8381C845.433 83.3324 848.516 82.1534 852.521 81.3011C856.527 80.4205 861.726 79.9801 868.118 79.9801ZM825.504 26.4574C829.822 26.4574 833.771 26.7273 837.351 27.267C840.959 27.8068 844.07 28.8864 846.683 30.5057C849.325 32.125 851.371 34.5256 852.82 37.7074C854.297 40.8608 855.036 45.0653 855.036 50.321V59.7386C855.036 64.1136 855.987 67.2812 857.891 69.2415C859.822 71.2017 863.232 72.1818 868.118 72.1818V80.7472C861.726 80.7472 856.527 80.321 852.521 79.4688C848.516 78.5881 845.433 77.4091 843.274 75.9318C841.115 74.4261 839.638 72.7074 838.842 70.7756C838.047 68.8153 837.649 66.7557 837.649 64.5966V52.1534C837.649 49.3977 837.337 47.125 836.712 45.3352C836.087 43.517 834.893 42.1818 833.132 41.3295C831.399 40.4489 828.857 40.0085 825.504 40.0085V26.4574ZM868.118 72.1818V88.5455H852.82V72.1818H868.118Z" fill="#FFF8F8"/>
<path d="M123.409 0H43.4092C21.3178 0 3.40918 17.9086 3.40918 40.0001V120C3.40918 142.092 21.3178 160 43.4092 160H123.409C145.501 160 163.409 142.092 163.409 120V40.0001C163.409 17.9086 145.501 0 123.409 0Z" fill="white"/>
<g filter="url(#filter0_d_5762_1381)">
<rect x="12.4844" y="90.4512" width="47.4728" height="30.1819" transform="rotate(-37.6696 12.4844 90.4512)" fill="#B6E7A4"/>
<path d="M126.089 39.9249L114.774 49.4503L69.4206 86.0156L59.2583 72.8263L50.2763 60.7025L27.2731 79.2482L36.2551 91.372L54.9675 116.63L63.5176 128.698L75.2639 119.228L132.364 73.1926L144.11 63.7224L126.089 39.9249Z" fill="white"/>
</g>
<path d="M123.405 0H43.4053C21.3139 0 3.40527 17.9086 3.40527 40.0001V120C3.40527 142.092 21.3139 160 43.4053 160H123.405C145.497 160 163.405 142.092 163.405 120V40.0001C163.405 17.9086 145.497 0 123.405 0Z" fill="white"/>
<g filter="url(#filter1_d_5762_1381)">
<rect x="4.35449" y="80.0176" width="57.0217" height="30.1819" transform="rotate(-38.2037 4.35449 80.0176)" fill="#645D5D"/>
<path d="M143.197 47.6041L131.883 57.1295L86.529 93.6948L76.3667 80.5055L67.3847 68.3817L44.3815 86.9274L53.3635 99.0512L72.0759 124.309L80.626 136.377L92.3723 126.907L149.472 80.8718L161.219 71.4016L143.197 47.6041Z" fill="white"/>
</g>
<path d="M123.408 0H43.4082C21.3168 0 3.4082 17.9086 3.4082 40.0001V120C3.4082 142.092 21.3168 160 43.4082 160H123.408C145.5 160 163.408 142.092 163.408 120V40.0001C163.408 17.9086 145.5 0 123.408 0Z" fill="white"/>
<g filter="url(#filter2_d_5762_1381)">
<rect x="12.4834" y="90.4512" width="47.4728" height="30.1819" transform="rotate(-37.6696 12.4834 90.4512)" fill="#B6E7A4"/>
<path d="M126.088 39.9249L114.773 49.4503L69.4196 86.0156L59.2573 72.8263L50.2754 60.7025L27.2722 79.2482L36.2541 91.372L54.9665 116.63L63.5166 128.698L75.2629 119.228L132.363 73.1926L144.109 63.7224L126.088 39.9249Z" fill="white"/>
</g>
<path d="M123.405 0H43.4053C21.3139 0 3.40527 17.9086 3.40527 40.0001V120C3.40527 142.092 21.3139 160 43.4053 160H123.405C145.497 160 163.405 142.092 163.405 120V40.0001C163.405 17.9086 145.497 0 123.405 0Z" fill="white"/>
<path fill-rule="evenodd" clip-rule="evenodd" d="M132.781 38.1081C134.406 36.482 134.406 33.8456 132.781 32.2196C131.155 30.5935 128.518 30.5935 126.892 32.2196L109.743 49.3688C102.058 44.3894 91.6825 45.2676 84.9463 52.0035L78.706 58.2441C77.8928 59.0571 77.8928 60.3753 78.706 61.1883L82.717 65.1995L77.548 70.3685C75.9219 71.9946 75.9219 74.6312 77.548 76.2571C79.174 77.8831 81.8105 77.8831 83.4365 76.2571L88.6054 71.088L93.9122 76.3945L88.7432 81.5635C87.1173 83.1895 87.1173 85.826 88.7432 87.4519C90.3692 89.0783 93.0057 89.0783 94.6317 87.4519L99.8007 82.283L103.812 86.294C104.625 87.1072 105.943 87.1072 106.756 86.294L112.997 80.0537C119.732 73.3179 120.611 62.9423 115.631 55.2574L132.781 38.1081ZM66.1082 73.7863C65.2952 72.9731 63.977 72.9731 63.164 73.7863L56.9234 80.0266C50.1875 86.7624 49.3093 97.1378 54.2886 104.823L37.2196 121.892C35.5935 123.518 35.5935 126.154 37.2196 127.781C38.8456 129.406 41.482 129.406 43.1081 127.781L60.1771 110.711C67.8621 115.691 78.2375 114.813 84.9733 108.077L91.214 101.836C92.0272 101.023 92.0272 99.7048 91.214 98.892L66.1082 73.7863Z" fill="#645D5D"/>
<defs>
<filter id="filter0_d_5762_1381" x="8.48438" y="39.9248" width="139.626" height="96.7734" filterUnits="userSpaceOnUse" color-interpolation-filters="sRGB">
<feFlood flood-opacity="0" result="BackgroundImageFix"/>
<feColorMatrix in="SourceAlpha" type="matrix" values="0 0 0 0 0 0 0 0 0 0 0 0 0 0 0 0 0 0 127 0" result="hardAlpha"/>
<feOffset dy="4"/>
<feGaussianBlur stdDeviation="2"/>
<feComposite in2="hardAlpha" operator="out"/>
<feColorMatrix type="matrix" values="0 0 0 0 0 0 0 0 0 0 0 0 0 0 0 0 0 0 0.25 0"/>
<feBlend mode="normal" in2="BackgroundImageFix" result="effect1_dropShadow_5762_1381"/>
<feBlend mode="normal" in="SourceGraphic" in2="effect1_dropShadow_5762_1381" result="shape"/>
</filter>
<filter id="filter1_d_5762_1381" x="0.354492" y="44.752" width="164.864" height="99.6255" filterUnits="userSpaceOnUse" color-interpolation-filters="sRGB">
<feFlood flood-opacity="0" result="BackgroundImageFix"/>
<feColorMatrix in="SourceAlpha" type="matrix" values="0 0 0 0 0 0 0 0 0 0 0 0 0 0 0 0 0 0 127 0" result="hardAlpha"/>
<feOffset dy="4"/>
<feGaussianBlur stdDeviation="2"/>
<feComposite in2="hardAlpha" operator="out"/>
<feColorMatrix type="matrix" values="0 0 0 0 0 0 0 0 0 0 0 0 0 0 0 0 0 0 0.25 0"/>
<feBlend mode="normal" in2="BackgroundImageFix" result="effect1_dropShadow_5762_1381"/>
<feBlend mode="normal" in="SourceGraphic" in2="effect1_dropShadow_5762_1381" result="shape"/>
</filter>
<filter id="filter2_d_5762_1381" x="8.4834" y="39.9248" width="139.626" height="96.7734" filterUnits="userSpaceOnUse" color-interpolation-filters="sRGB">
<feFlood flood-opacity="0" result="BackgroundImageFix"/>
<feColorMatrix in="SourceAlpha" type="matrix" values="0 0 0 0 0 0 0 0 0 0 0 0 0 0 0 0 0 0 127 0" result="hardAlpha"/>
<feOffset dy="4"/>
<feGaussianBlur stdDeviation="2"/>
<feComposite in2="hardAlpha" operator="out"/>
<feColorMatrix type="matrix" values="0 0 0 0 0 0 0 0 0 0 0 0 0 0 0 0 0 0 0.25 0"/>
<feBlend mode="normal" in2="BackgroundImageFix" result="effect1_dropShadow_5762_1381"/>
<feBlend mode="normal" in="SourceGraphic" in2="effect1_dropShadow_5762_1381" result="shape"/>
</filter>
</defs>
</svg>
