<svg width="103" height="103" viewBox="0 0 103 103" fill="none" xmlns="http://www.w3.org/2000/svg">
<path d="M76.688 14.6318C73.5741 14.6318 70.6469 15.8444 68.4449 18.0462C63.8999 22.5914 63.8999 29.987 68.4449 34.5322C70.6467 36.734 73.5741 37.9466 76.6878 37.9466C79.8015 37.9466 82.7289 36.734 84.9309 34.5322C89.4759 29.987 89.4759 22.5914 84.9309 18.0462C82.7291 15.8444 79.8017 14.6318 76.688 14.6318ZM80.426 30.0271C79.4275 31.0257 78.1 31.5757 76.6878 31.5757C75.2756 31.5757 73.9481 31.0257 72.9495 30.0274C70.8883 27.9662 70.8883 24.6123 72.9495 22.5511C73.9481 21.5526 75.2756 21.0027 76.6878 21.0027C78.1 21.0027 79.4273 21.5526 80.426 22.5511C82.4872 24.6123 82.4872 27.9659 80.426 30.0271Z" fill="#8BCC58"/>
<path d="M93.8376 9.13928C87.9443 3.24577 80.1083 0 71.7736 0C63.4388 0 55.603 3.24577 49.7097 9.13928C40.7424 18.1066 38.1378 31.4755 42.9002 43.0533L0.03504 85.919L0 102.965L30.6997 103V91.1667H42.5294V79.337H54.3592V65.6412L59.9256 60.0747C63.6664 61.6044 67.719 62.4056 71.7753 62.4056C80.1093 62.4056 87.9447 59.1603 93.8376 53.2672C106.004 41.1011 106.004 21.3054 93.8376 9.13928ZM89.3327 48.7623C84.6431 53.4519 78.4077 56.0347 71.7753 56.0347C67.9245 56.0347 64.0799 55.129 60.6574 53.4156L58.6035 52.3874L47.9883 63.0024V72.966H36.1585V84.7958H24.3288V96.6219L6.38408 96.6015L6.40064 88.5635L50.5897 44.3734L49.5614 42.3194C44.768 32.7446 46.6378 21.2209 54.2145 13.6442C58.9048 8.95389 65.1407 6.37091 71.7736 6.37091C78.4066 6.37091 84.6424 8.95389 89.3327 13.6442C99.0148 23.3262 99.0148 39.0802 89.3327 48.7623Z" fill="#8BCC58"/>
</svg>
